inDegrees=yes
name=ik_S56_A10_T01
DataType=double
version=3
OpenSimVersion=4.3-2021-08-27-4bc7ad9
endheader
time	pelvis_tilt	pelvis_list	pelvis_rotation	pelvis_tx	pelvis_ty	pelvis_tz	hip_flexion_r	hip_adduction_r	hip_rotation_r	knee_angle_r	knee_angle_r_beta	ankle_angle_r	subtalar_angle_r	mtp_angle_r	hip_flexion_l	hip_adduction_l	hip_rotation_l	knee_angle_l	knee_angle_l_beta	ankle_angle_l	subtalar_angle_l	mtp_angle_l	lumbar_extension	lumbar_bending	lumbar_rotation	arm_flex_r	arm_add_r	arm_rot_r	elbow_flex_r	pro_sup_r	wrist_flex_r	wrist_dev_r	arm_flex_l	arm_add_l	arm_rot_l	elbow_flex_l	pro_sup_l	wrist_flex_l	wrist_dev_l
0	0	0	0	0	0.9399999999999999	0	0	0	0	0	0	0	0	0	0	0	0	0	0	0	0	0	0	0	0	0	0	0	0	89.99999999963507	0	0	0	0	0	0	89.99999999869995	0	0
0.02	-2.861923549449311	-1.306491429679762	18.91391448706321	0	0.9399999999999999	0	2.641404269899655	-1.231227607043746	-0.8888398669369538	4.119934181473996	0.07190641643217879	0	0	0	2.641404269899655	-1.231227607043746	-0.8888398669369538	4.119934181473996	0.07190641643217879	0	0	0	-2.460069396555125	-0.3588024012405946	4.90934757679228	12.94453375890553	-2.983457864117554	19.27142873341152	26.37408648266748	65.68467927649738	0	0	15.94884227210721	0.4392759048778404	15.94493603688659	23.86078331576487	61.41272487406422	0	0
0.04	-2.595268811592663	-1.294510356930053	19.88003120720926	0	0.9399999999999999	0	30.61476623500457	-15.65727520819657	-9.856963272623286	49.31018745802962	0.8606251259182301	0	0	0	30.61476623500457	-15.65727520819657	-9.856963272623286	49.31018745802962	0.8606251259182301	0	0	0	-2.755789877684102	-0.2333656210554409	3.964762535621712	12.99693233983363	-2.952694621081898	19.32438824300102	26.31629783366918	65.829123672713	0	0	15.98637984257049	0.4357751791136061	15.96373932704327	23.87312780347708	61.37588684614231	0	0
0.06	-2.606035036017943	-1.291201718592463	19.90669195401102	0	0.9399999999999999	0	30.62575091205201	-15.65068487919823	-9.857134269581495	49.31338789114346	0.8606809840135565	0	0	0	30.62575091205201	-15.65068487919823	-9.857134269581495	49.31338789114346	0.8606809840135565	0	0	0	-2.764993865865402	-0.2263081522609032	3.95455062101209	13.02352490329869	-2.941329871905328	19.41923834285019	26.27057746646908	65.90658922181689	0	0	15.96037423000952	0.4433558570051365	16.02441682718865	23.88275324601798	61.3580170299505	0	0
0.08	-2.625411129428733	-1.286441328124197	19.91884918920787	0	0.9399999999999999	0	30.63480860352008	-15.6439088925272	-9.857286468672626	49.31597905804198	0.8607262084074043	0	0	0	30.63480860352008	-15.6439088925272	-9.857286468672626	49.31597905804198	0.8607262084074043	0	0	0	-2.781720876164955	-0.2151220936077053	3.948737398843824	13.08344909859109	-2.939502672644196	19.45015768543795	26.18791854023029	65.93683463761427	0	0	15.96797662471623	0.441764966303843	16.0475068853023	23.90622466313839	61.32747059665782	0	0
0.1	-2.646818954499935	-1.276448260306184	19.92514250497234	0	0.9399999999999999	0	30.6439035621933	-15.63903320422974	-9.857424105220675	49.3186610218365	0.8607730175060381	0	0	0	30.6439035621933	-15.63903320422974	-9.857424105220675	49.3186610218365	0.8607730175060381	0	0	0	-2.798557644476193	-0.1983514926172865	3.944379464295103	13.14280638774934	-2.943920563797839	19.5059030724553	26.10354954127158	65.90597390948486	0	0	15.98856595325762	0.4403982528521598	16.09578120326108	23.91849368233443	61.27522543287886	0	0
0.12	-2.661319968334708	-1.26820771203195	19.91066735143592	0	0.9399999999999999	0	30.64489453562705	-15.63778079462211	-9.857444518149979	49.31893307624262	0.8607777657511692	0	0	0	30.64489453562705	-15.63778079462211	-9.857444518149979	49.31893307624262	0.8607777657511692	0	0	0	-2.80924055400314	-0.1860607923530954	3.951857946674254	13.1743640219801	-2.948025920661993	19.60884206234208	26.08457858152543	65.93228793488541	0	0	15.96007263000236	0.4077114126315979	16.22311877193217	23.93645601178383	61.27242719351855	0	0
0.14	-2.680782867630505	-1.262100880544137	19.9247408409597	0	0.9399999999999999	0	30.65672584032295	-15.62851420986788	-9.857646381978046	49.32228251184326	0.860836224430484	0	0	0	30.65672584032295	-15.62851420986788	-9.857646381978046	49.32228251184326	0.860836224430484	0	0	0	-2.82575063333362	-0.1731868088454236	3.93789788302538	13.20922698863968	-2.924189237875372	19.69052636568189	26.00518680906499	66.03158807841999	0	0	15.98334709797989	0.4226073491431074	16.2313405159747	23.95551935456227	61.24750543708475	0	0
0.16	-2.695303402937761	-1.245966061887217	19.90297741414382	0	0.9399999999999999	0	30.65785802260976	-15.62703249932924	-9.857670211865653	49.32258269427194	0.8608414636022211	0	0	0	30.65785802260976	-15.62703249932924	-9.857670211865653	49.32258269427194	0.8608414636022211	0	0	0	-2.833704575107473	-0.1536614085937283	3.948867782219875	13.21768514083609	-2.93143855146835	19.75850869904618	26.00231835545236	66.05832188446152	0	0	15.95789267380346	0.3781922694812155	16.36551322579107	23.93046650479359	61.27912645139011	0	0
0.18	-2.707294371114574	-1.23742826505031	19.89580877108843	0	0.9399999999999999	0	30.662677409303	-15.62258048210762	-9.857758762537051	49.32392994108412	0.8608649774949305	0	0	0	30.662677409303	-15.62258048210762	-9.857758762537051	49.32392994108412	0.8608649774949305	0	0	0	-2.842005032031283	-0.1418396949848883	3.954103327149945	13.21871032972593	-2.904858331136459	19.73652915512523	25.97991722053508	66.06781519043382	0	0	15.93883494354044	0.3738223312460888	16.41664405181261	23.89136533003546	61.27563486653764	0	0
0.2	-2.715874567795658	-1.233909695780283	19.8888335922843	0	0.9399999999999999	0	30.66636757623797	-15.61956817830269	-9.857823742487982	49.32498448882108	0.8608833828250601	0	0	0	30.66636757623797	-15.61956817830269	-9.857823742487982	49.32498448882108	0.8608833828250601	0	0	0	-2.84882194760816	-0.1358252550155578	3.958143906099618	13.22508762543429	-2.87731846841785	19.70972550141763	25.9342259530856	66.06855619565333	0	0	15.92502639019877	0.3527173923729325	16.45546863739056	23.85633769211218	61.26924776086713	0	0
0.22	-2.724438039661411	-1.232105125606608	19.88540822980786	0	0.9399999999999999	0	30.66314143917399	-15.62178264611443	-9.857771054733048	49.32408560344535	0.8608676943156556	0	0	0	30.66314143917399	-15.62178264611443	-9.857771054733048	49.32408560344535	0.8608676943156556	0	0	0	-2.856209523243357	-0.1313173481070078	3.960760944281211	13.22893866211358	-2.855675864013983	19.70075657961045	25.90427538517522	66.05997042276068	0	0	15.89582945872695	0.3724073006295485	16.46278820873637	23.83237674447829	61.271666887438	0	0
0.24	-2.740746350134516	-1.227516178542136	19.88574951410394	0	0.9399999999999999	0	30.67876645412544	-15.6021148492518	-9.858095679477488	49.32816898798181	0.8609389628204418	0	0	0	30.67876645412544	-15.6021148492518	-9.858095679477488	49.32816898798181	0.8609389628204418	0	0	0	-2.870078982604084	-0.1215196693343829	3.958162116841674	13.22792283094372	-2.834652503230263	19.69525449405985	25.93953153982341	66.08257048597854	0	0	15.90621730885068	0.3932177347586328	16.46104751516011	23.87916881188734	61.29300423882608	0	0
0.26	-2.747828412999363	-1.212481012830192	19.90418981444778	0	0.9399999999999999	0	30.67481676388505	-15.61177580391817	-9.857976958313833	49.32737525477415	0.8609251095625857	0	0	0	30.67481676388505	-15.61177580391817	-9.857976958313833	49.32737525477415	0.8609251095625857	0	0	0	-2.87146729296682	-0.1054168816181894	3.966677515366507	13.22290518362826	-2.835918172089468	19.6193761186299	25.81738598388664	66.11237973509962	0	0	15.9041527890764	0.4379352709967471	16.41409648487098	23.75296531750247	61.44371349178101	0	0
0.28	-2.744573452527137	-1.207356615440492	19.88823845094278	0	0.9399999999999999	0	30.70089214183401	-15.59376179123473	-9.858400146011819	49.33484857036427	0.8610555435256739	0	0	0	30.70089214183401	-15.59376179123473	-9.858400146011819	49.33484857036427	0.8610555435256739	0	0	0	-2.866652065952043	-0.1022941776815822	3.967756305791032	13.21734738359695	-2.812561948743127	19.56974646389539	25.83279578900408	66.11432927056075	0	0	15.88207993845947	0.4496642534215172	16.3547481747575	23.76138439777613	61.46360459020881	0	0
0.3	-2.743060909421515	-1.201443510747042	19.88028216456711	0	0.9399999999999999	0	30.71101698469782	-15.58256195499503	-9.858599108228391	49.33758165884082	0.861103244918338	0	0	0	30.71101698469782	-15.58256195499503	-9.858599108228391	49.33758165884082	0.861103244918338	0	0	0	-2.863174501798027	-0.09758998015597026	3.969923904563389	13.24102471669762	-2.809033518787707	19.53721811790078	25.82238932340616	66.10450245383251	0	0	15.8660724556145	0.4696129219540139	16.34613319995446	23.76854664762945	61.48193921189264	0	0
0.32	-2.737584972835254	-1.198969707063182	19.90389860077862	0	0.9399999999999999	0	30.72302537269688	-15.57232190142792	-9.858811202929704	49.34095170009714	0.8611620632341889	0	0	0	30.72302537269688	-15.57232190142792	-9.858811202929704	49.34095170009714	0.8611620632341889	0	0	0	-2.857227066128412	-0.09725356397600339	3.969916126469777	13.25961748036078	-2.834388293986462	19.56029360299292	25.79086044705247	66.05946232659331	0	0	15.8841825196636	0.4598075242458202	16.30459018467255	23.75363830980179	61.52108738808845	0	0
0.34	-2.738947483102837	-1.200699573604777	19.90339836567998	0	0.9399999999999999	0	30.74130783292054	-15.54794946575889	-9.859200770312102	49.3456830755682	0.861244641314307	0	0	0	30.74130783292054	-15.54794946575889	-9.859200770312102	49.3456830755682	0.861244641314307	0	0	0	-2.859244422294135	-0.09836669535199982	3.964368471268744	13.26570264325459	-2.844579502304664	19.56392553794927	25.84476114623381	66.06355462537836	0	0	15.90141781194235	0.4627462222503941	16.28214841908494	23.82206051689217	61.55312921795802	0	0
0.36	-2.733085334277458	-1.194200216626557	19.91398340664676	0	0.9399999999999999	0	30.77441959520651	-15.52714160441764	-9.859717621346576	49.35528031604122	0.8614121447596668	0	0	0	30.77441959520651	-15.52714160441764	-9.859717621346576	49.35528031604122	0.8614121447596668	0	0	0	-2.851991581672365	-0.09377439548699393	3.946186694370707	13.27281997001858	-2.858177585306443	19.6581187514137	25.84337929966	66.06423740390434	0	0	15.89295440179228	0.4805819485946365	16.3213443390457	23.83714407004107	61.58706242328193	0	0
0.3800000000000001	-2.715958777334607	-1.179974204528506	19.91919278443901	0	0.9399999999999999	0	30.776963041276	-15.5297636807622	-9.859721931843895	49.35625722611827	0.8614291950570072	-1.689994513494355e-36	0	0	30.776963041276	-15.5297636807622	-9.859721931843895	49.35625722611827	0.8614291950570072	-1.689994513494355e-36	0	0	-2.83124856839907	-0.0857470922488366	3.937616634810457	13.25436062871837	-2.874249771782052	19.75158256646563	25.80066933968315	66.03366247984103	0	0	15.90042320528057	0.5065620309118702	16.37405021397859	23.79565837022813	61.56716249019716	0	0
0.4000000000000001	-2.706362622042261	-1.170750299163413	19.90838774580035	0	0.9399999999999999	0	30.77825740092576	-15.52809409135943	-9.859748934322418	49.35660321879664	0.8614352337684326	0	0	0	30.77825740092576	-15.52809409135943	-9.859748934322418	49.35660321879664	0.8614352337684326	0	0	0	-2.818944945782063	-0.08081257862287614	3.945545414647614	13.25564893337376	-2.878706589302645	19.82577536538376	25.79066998352036	65.99439833385382	0	0	15.96120061103804	0.5371007046318248	16.46176213102245	23.79774768209122	61.53597597710694	0	0
0.4200000000000001	-2.692115069324506	-1.170262088411735	19.90640986714187	0	0.9399999999999999	0	30.77870837654168	-15.52265789651281	-9.859797917983244	49.35652045625329	0.8614337892895537	0	0	0	30.77870837654168	-15.52265789651281	-9.859797917983244	49.35652045625329	0.8614337892895537	0	0	0	-2.805361646782755	-0.08525722534160271	3.946487339187629	13.26149203926195	-2.888183123478002	19.84167159638388	25.80093832033802	65.97891771158885	0	0	15.98191787229648	0.5424736429673195	16.49056143510873	23.80554931962995	61.51977292240231	0	0
0.4400000000000001	-2.678766253235802	-1.167845861790347	19.90100028766177	0	0.9399999999999999	0	30.77795169870269	-15.5169770501754	-9.859835704093625	49.35604909445122	0.8614255624741396	0	0	0	30.77795169870269	-15.5169770501754	-9.859835704093625	49.35604909445122	0.8614255624741396	0	0	0	-2.791989042463041	-0.08746354788336749	3.946459359124876	13.27402638964614	-2.89721740240483	19.84971535926016	25.80662384209314	65.96405727765232	0	6.427801079829068e-36	16.0047825462483	0.5379353051370479	16.51409334068235	23.82416726421803	61.52162951719836	0	6.427801079829068e-36
